# xmcd
#
# Track frame offsets:
#	150
#	17265
#	36995
#	51415
#	70630
#	102365
#	122810
#	143110
#	175987
#	185265
#
# Disc length: 2724 seconds
#
# Revision: 1
# Processed by: cddbd v1.5.1PL0 Copyright (c) Steve Scherf et al.
# Submitted via: audiograbber 1.82.01
#
DISCID=850aa20a
DTITLE=HBTB - Now and Eternity
DYEAR=1900
DGENRE=
TTITLE0=Official Information
TTITLE1=RAJTV
TTITLE2=Preaching
TTITLE3=No-No
TTITLE4=Wasted
TTITLE5=Speak No Evil
TTITLE6=Beep! Repair
TTITLE7=Official Information #2
TTITLE8=Mandra Saptak
TTITLE9=Waiting
EXTD=
EXTT0=
EXTT1=
EXTT2=
EXTT3=
EXTT4=
EXTT5=
EXTT6=
EXTT7=
EXTT8=
EXTT9=
PLAYORDER=
